<svg width="32" height="32" viewBox="0 0 32 32" fill="none" xmlns="http://www.w3.org/2000/svg">
  <defs>
    <linearGradient id="faviconGradient" x1="0%" y1="0%" x2="100%" y2="100%">
      <stop offset="0%" style="stop-color:#6366F1;stop-opacity:1" />
      <stop offset="50%" style="stop-color:#8B5CF6;stop-opacity:1" />
      <stop offset="100%" style="stop-color:#A855F7;stop-opacity:1" />
    </linearGradient>
    <linearGradient id="cloudFill" x1="0%" y1="0%" x2="100%" y2="100%">
      <stop offset="0%" style="stop-color:#FFFFFF;stop-opacity:1" />
      <stop offset="100%" style="stop-color:#F0F9FF;stop-opacity:0.95" />
    </linearGradient>
    <linearGradient id="screenGlowSmall" x1="50%" y1="0%" x2="50%" y2="100%">
      <stop offset="0%" style="stop-color:#10B981;stop-opacity:0.8" />
      <stop offset="100%" style="stop-color:#059669;stop-opacity:0.5" />
    </linearGradient>
  </defs>
  
  <!-- Background -->
  <rect width="32" height="32" rx="7.5" fill="url(#faviconGradient)"/>
  
  <!-- Background pattern circles -->
  <circle cx="6" cy="6" r="4" fill="white" opacity="0.08"/>
  <circle cx="27" cy="5" r="2.5" fill="white" opacity="0.1"/>
  <circle cx="28" cy="27" r="4.5" fill="white" opacity="0.07"/>
  
  <!-- Cloud Shape (Modern & Simplified) -->
  <path d="M 16 7.5 
           C 17.5 7.5 18.7 8 19.6 9
           C 20.5 8 21.8 7.5 23.4 7.5
           C 26.1 7.5 28.3 9.7 28.3 12.4
           C 28.3 12.8 28.2 13.1 28.1 13.5
           C 29.9 14.3 31.2 16 31.2 18
           C 31.2 20.9 28.8 23.3 25.9 23.3
           L 9.8 23.3
           C 6.9 23.3 4.5 20.9 4.5 18
           C 4.5 16 5.8 14.3 7.6 13.5
           C 7.5 13.1 7.4 12.8 7.4 12.4
           C 7.4 9.7 9.6 7.5 12.3 7.5
           C 13.9 7.5 15.2 8 16.1 9
           C 17 8 18.2 7.5 19.7 7.5"
        fill="url(#cloudFill)"
        opacity="0.98"/>
  
  <!-- Cloud highlight -->
  <ellipse cx="16" cy="8.7" rx="11.2" ry="2.2" fill="white" opacity="0.25"/>
  
  <!-- POS Terminal (Enhanced) -->
  <g>
    <!-- Terminal Body -->
    <rect x="10.3" y="12.2" width="11.2" height="8.4" rx="0.8" fill="#1F2937"/>
    
    <!-- Screen -->
    <rect x="11.2" y="13.1" width="9.5" height="6.1" rx="0.4" fill="#000000"/>
    <rect x="11.5" y="13.4" width="8.8" height="5.5" rx="0.3" fill="url(#screenGlowSmall)"/>
    
    <!-- Screen Content -->
    <g opacity="0.9">
      <rect x="12.2" y="14.1" width="4.4" height="0.4" rx="0.2" fill="#34D399"/>
      <rect x="12.2" y="14.9" width="6.9" height="0.4" rx="0.2" fill="#34D399"/>
      <rect x="12.2" y="15.7" width="5.9" height="0.4" rx="0.2" fill="#34D399"/>
      <rect x="12.2" y="16.5" width="4.7" height="0.4" rx="0.2" fill="#34D399"/>
      <rect x="12.2" y="17.3" width="6.2" height="0.4" rx="0.2" fill="#34D399"/>
    </g>
    
    <!-- Terminal Stand -->
    <path d="M 14.4 20.6 L 15 22.2 L 17 22.2 L 17.6 20.6 Z" fill="#1F2937"/>
    <rect x="12.5" y="22.2" width="7" height="0.5" rx="0.25" fill="#1F2937"/>
    
    <!-- Cart Icon (Modern & Compact) -->
    <g transform="translate(18.4, 15.6)">
      <circle cx="0.6" cy="2.1" r="0.22" fill="#FBBF24"/>
      <circle cx="1.6" cy="2.1" r="0.22" fill="#FBBF24"/>
      <path d="M 0.1 0.1 L 0.5 0.1 L 0.8 1.4 L 1.9 1.4 L 2.2 0.6 L 0.6 0.6"
            stroke="#FBBF24"
            stroke-width="0.2"
            fill="none"
            stroke-linecap="round"
            stroke-linejoin="round"/>
      <rect x="0.9" y="0.9" width="0.6" height="0.3" rx="0.08" fill="#FBBF24" opacity="0.7"/>
    </g>
    
    <!-- Power indicator -->
    <circle cx="16" cy="19.9" r="0.2" fill="#10B981" opacity="0.9"/>
  </g>
  
  <!-- Floating particles -->
  <circle cx="7.5" cy="16.5" r="0.3" fill="#FBBF24" opacity="0.8"/>
  <circle cx="24.6" cy="14.7" r="0.4" fill="#34D399" opacity="0.8"/>
  <circle cx="8.7" cy="21.6" r="0.25" fill="#60A5FA" opacity="0.7"/>
  <circle cx="23.7" cy="20.3" r="0.3" fill="#F472B6" opacity="0.8"/>
  
  <!-- Shine overlay -->
  <rect width="32" height="16" fill="url(#cloudFill)" opacity="0.15"/>
</svg>
